<svg xmlns="http://www.w3.org/2000/svg" viewBox="0 0 800 450">
  <defs>
    <linearGradient id="bg" x1="0%" y1="0%" x2="100%" y2="100%">
      <stop offset="0%" style="stop-color:#0a0a0b"/>
      <stop offset="100%" style="stop-color:#0f1015"/>
    </linearGradient>
    <radialGradient id="glow1" cx="40%" cy="40%" r="50%">
      <stop offset="0%" style="stop-color:#38bdf8;stop-opacity:0.18"/>
      <stop offset="100%" style="stop-color:transparent;stop-opacity:0"/>
    </radialGradient>
  </defs>
  <rect width="800" height="450" fill="url(#bg)"/>
  <rect width="800" height="450" fill="url(#glow1)"/>
  <rect x="100" y="60" width="600" height="340" rx="12" fill="#161618" stroke="#2a2a2e" stroke-width="1.5"/>
  <rect x="100" y="60" width="600" height="32" rx="12" fill="#1e1e21"/>
  <rect x="100" y="80" width="600" height="12" fill="#1e1e21"/>
  <circle cx="120" cy="76" r="5" fill="#ff5f57"/>
  <circle cx="136" cy="76" r="5" fill="#ffbd2e"/>
  <circle cx="152" cy="76" r="5" fill="#28c840"/>
  <rect x="250" y="70" width="300" height="14" rx="7" fill="#111113"/>
  <!-- Tooth icon -->
  <text x="400" y="200" text-anchor="middle" font-size="64" opacity="0.15">&#129463;</text>
  <rect x="200" y="230" width="400" height="16" rx="4" fill="#f0efe9" opacity="0.9"/>
  <text x="400" y="243" text-anchor="middle" font-family="sans-serif" font-size="13" font-weight="700" fill="#0a0a0b">Dental Hospital</text>
  <rect x="250" y="260" width="300" height="8" rx="2" fill="#8a8a8e" opacity="0.35"/>
  <rect x="270" y="275" width="260" height="8" rx="2" fill="#8a8a8e" opacity="0.25"/>
  <rect x="310" y="300" width="180" height="36" rx="18" fill="#38bdf8"/>
  <text x="400" y="323" text-anchor="middle" font-family="sans-serif" font-size="12" font-weight="600" fill="#0a0a0a">Book Appointment</text>
  <rect x="140" y="350" width="180" height="30" rx="6" fill="#1e1e21" stroke="#2a2a2e" stroke-width="1"/>
  <rect x="340" y="350" width="180" height="30" rx="6" fill="#1e1e21" stroke="#2a2a2e" stroke-width="1"/>
  <rect x="540" y="350" width="120" height="30" rx="6" fill="#1e1e21" stroke="#2a2a2e" stroke-width="1"/>
</svg>
