<svg xmlns="http://www.w3.org/2000/svg" viewBox="0 0 800 450">
  <defs>
    <linearGradient id="bg" x1="0%" y1="0%" x2="100%" y2="100%">
      <stop offset="0%" style="stop-color:#0a0a0a"/>
      <stop offset="100%" style="stop-color:#0e0a14"/>
    </linearGradient>
    <radialGradient id="glow1" cx="50%" cy="45%" r="55%">
      <stop offset="0%" style="stop-color:#6940f2;stop-opacity:0.15"/>
      <stop offset="100%" style="stop-color:transparent;stop-opacity:0"/>
    </radialGradient>
  </defs>
  <rect width="800" height="450" fill="url(#bg)"/>
  <rect width="800" height="450" fill="url(#glow1)"/>
  <!-- Desktop app window -->
  <rect x="120" y="50" width="560" height="340" rx="10" fill="#161618" stroke="#2a2a2e" stroke-width="1.5"/>
  <rect x="120" y="50" width="560" height="28" rx="10" fill="#1e1e21"/>
  <rect x="120" y="68" width="560" height="10" fill="#1e1e21"/>
  <circle cx="138" cy="64" r="5" fill="#ff5f57"/>
  <circle cx="154" cy="64" r="5" fill="#ffbd2e"/>
  <circle cx="170" cy="64" r="5" fill="#28c840"/>
  <!-- Sidebar -->
  <rect x="120" y="78" width="140" height="312" fill="#131315"/>
  <rect x="132" y="95" width="100" height="10" rx="3" fill="#0acd95" opacity="0.7"/>
  <rect x="132" y="120" width="80" height="8" rx="2" fill="#8a8a8e" opacity="0.3"/>
  <rect x="132" y="140" width="90" height="8" rx="2" fill="#8a8a8e" opacity="0.3"/>
  <rect x="132" y="160" width="70" height="8" rx="2" fill="#6940f2" opacity="0.5"/>
  <rect x="132" y="180" width="85" height="8" rx="2" fill="#8a8a8e" opacity="0.3"/>
  <rect x="132" y="200" width="75" height="8" rx="2" fill="#8a8a8e" opacity="0.3"/>
  <!-- Main content area -->
  <rect x="280" y="95" width="200" height="14" rx="3" fill="#f0efe9" opacity="0.8"/>
  <rect x="280" y="125" width="380" height="8" rx="2" fill="#8a8a8e" opacity="0.3"/>
  <rect x="280" y="145" width="360" height="8" rx="2" fill="#8a8a8e" opacity="0.25"/>
  <!-- Data table mockup -->
  <rect x="280" y="175" width="380" height="28" rx="4" fill="#1e1e21" stroke="#2a2a2e" stroke-width="1"/>
  <rect x="280" y="210" width="380" height="28" rx="0" fill="#141416" stroke="#2a2a2e" stroke-width="0.5"/>
  <rect x="280" y="245" width="380" height="28" rx="0" fill="#161618" stroke="#2a2a2e" stroke-width="0.5"/>
  <rect x="280" y="280" width="380" height="28" rx="0" fill="#141416" stroke="#2a2a2e" stroke-width="0.5"/>
  <!-- AI badge -->
  <rect x="530" y="330" width="120" height="30" rx="15" fill="#6940f2" opacity="0.2" stroke="#6940f2" stroke-width="1"/>
  <text x="590" y="350" text-anchor="middle" font-family="sans-serif" font-size="10" font-weight="700" fill="#6940f2">AI Powered</text>
  <text x="400" y="430" text-anchor="middle" font-family="sans-serif" font-size="12" font-weight="600" fill="#6940f2" opacity="0.5">In Development</text>
</svg>
