<svg xmlns="http://www.w3.org/2000/svg" viewBox="0 0 800 450">
  <defs>
    <linearGradient id="bg" x1="0%" y1="0%" x2="100%" y2="100%">
      <stop offset="0%" style="stop-color:#0a0a0a"/>
      <stop offset="100%" style="stop-color:#12081a"/>
    </linearGradient>
    <radialGradient id="glow1" cx="50%" cy="45%" r="55%">
      <stop offset="0%" style="stop-color:#d946ef;stop-opacity:0.15"/>
      <stop offset="100%" style="stop-color:transparent;stop-opacity:0"/>
    </radialGradient>
  </defs>
  <rect width="800" height="450" fill="url(#bg)"/>
  <rect width="800" height="450" fill="url(#glow1)"/>
  <!-- Film strip style -->
  <rect x="80" y="120" width="640" height="220" rx="4" fill="#161618" stroke="#2a2a2e" stroke-width="1.5"/>
  <!-- Film perforations left -->
  <rect x="90" y="130" width="16" height="12" rx="2" fill="#0a0a0a"/>
  <rect x="90" y="155" width="16" height="12" rx="2" fill="#0a0a0a"/>
  <rect x="90" y="180" width="16" height="12" rx="2" fill="#0a0a0a"/>
  <rect x="90" y="205" width="16" height="12" rx="2" fill="#0a0a0a"/>
  <rect x="90" y="230" width="16" height="12" rx="2" fill="#0a0a0a"/>
  <rect x="90" y="255" width="16" height="12" rx="2" fill="#0a0a0a"/>
  <rect x="90" y="280" width="16" height="12" rx="2" fill="#0a0a0a"/>
  <rect x="90" y="305" width="16" height="12" rx="2" fill="#0a0a0a"/>
  <!-- Film perforations right -->
  <rect x="694" y="130" width="16" height="12" rx="2" fill="#0a0a0a"/>
  <rect x="694" y="155" width="16" height="12" rx="2" fill="#0a0a0a"/>
  <rect x="694" y="180" width="16" height="12" rx="2" fill="#0a0a0a"/>
  <rect x="694" y="205" width="16" height="12" rx="2" fill="#0a0a0a"/>
  <rect x="694" y="230" width="16" height="12" rx="2" fill="#0a0a0a"/>
  <rect x="694" y="255" width="16" height="12" rx="2" fill="#0a0a0a"/>
  <rect x="694" y="280" width="16" height="12" rx="2" fill="#0a0a0a"/>
  <rect x="694" y="305" width="16" height="12" rx="2" fill="#0a0a0a"/>
  <!-- Center content -->
  <text x="400" y="210" text-anchor="middle" font-family="sans-serif" font-size="42" font-weight="900" fill="#d946ef" letter-spacing="6">NTCFLIX</text>
  <text x="400" y="245" text-anchor="middle" font-family="sans-serif" font-size="12" fill="#f0efe9" font-weight="600" letter-spacing="4">STORYTELLING PLATFORM</text>
  <rect x="300" y="265" width="200" height="1" fill="#d946ef" opacity="0.4"/>
  <text x="400" y="290" text-anchor="middle" font-family="sans-serif" font-size="10" fill="#8a8a8e">Creative Discussions &amp; Content</text>
  <text x="400" y="400" text-anchor="middle" font-family="sans-serif" font-size="11" fill="#d946ef" opacity="0.5" font-weight="600">Founded at NTC Logistics</text>
</svg>
